solid OpenSCAD_Model
  facet normal -1 0 0
    outer loop
      vertex 0 0 0
      vertex 0 5 1
      vertex 0 5 0
    endloop
  endfacet
  facet normal -1 -0 0
    outer loop
      vertex 0 5 1
      vertex 0 0 0
      vertex 0 0 1
    endloop
  endfacet
  facet normal 0 0 1
    outer loop
      vertex 2.99518 2.90198 1
      vertex 5 5 1
      vertex 3 3 1
    endloop
  endfacet
  facet normal 0 0 1
    outer loop
      vertex 5 5 1
      vertex 2.99518 3.09802 1
      vertex 3 3 1
    endloop
  endfacet
  facet normal 0 0 1
    outer loop
      vertex 5 5 1
      vertex 2.98078 3.19509 1
      vertex 2.99518 3.09802 1
    endloop
  endfacet
  facet normal 0 0 1
    outer loop
      vertex 5 5 1
      vertex 2.95694 3.29028 1
      vertex 2.98078 3.19509 1
    endloop
  endfacet
  facet normal 0 0 1
    outer loop
      vertex 5 5 1
      vertex 2.92388 3.38268 1
      vertex 2.95694 3.29028 1
    endloop
  endfacet
  facet normal 0 0 1
    outer loop
      vertex 5 5 1
      vertex 2.88192 3.4714 1
      vertex 2.92388 3.38268 1
    endloop
  endfacet
  facet normal 0 0 1
    outer loop
      vertex 5 5 1
      vertex 2.83147 3.55557 1
      vertex 2.88192 3.4714 1
    endloop
  endfacet
  facet normal 0 0 1
    outer loop
      vertex 5 5 1
      vertex 2.77301 3.63439 1
      vertex 2.83147 3.55557 1
    endloop
  endfacet
  facet normal 0 0 1
    outer loop
      vertex 5 5 1
      vertex 2.70711 3.70711 1
      vertex 2.77301 3.63439 1
    endloop
  endfacet
  facet normal 0 0 1
    outer loop
      vertex 5 5 1
      vertex 2.63439 3.77301 1
      vertex 2.70711 3.70711 1
    endloop
  endfacet
  facet normal 0 0 1
    outer loop
      vertex 5 5 1
      vertex 2.55557 3.83147 1
      vertex 2.63439 3.77301 1
    endloop
  endfacet
  facet normal 0 0 1
    outer loop
      vertex 5 5 1
      vertex 2.4714 3.88192 1
      vertex 2.55557 3.83147 1
    endloop
  endfacet
  facet normal 0 0 1
    outer loop
      vertex 5 5 1
      vertex 2.38268 3.92388 1
      vertex 2.4714 3.88192 1
    endloop
  endfacet
  facet normal 0 0 1
    outer loop
      vertex 5 5 1
      vertex 2.29028 3.95694 1
      vertex 2.38268 3.92388 1
    endloop
  endfacet
  facet normal 0 0 1
    outer loop
      vertex 5 5 1
      vertex 2.19509 3.98078 1
      vertex 2.29028 3.95694 1
    endloop
  endfacet
  facet normal 0 0 1
    outer loop
      vertex 5 5 1
      vertex 2.09802 3.99518 1
      vertex 2.19509 3.98078 1
    endloop
  endfacet
  facet normal -0 0 1
    outer loop
      vertex 0 5 1
      vertex 2.09802 3.99518 1
      vertex 5 5 1
    endloop
  endfacet
  facet normal 0 0 1
    outer loop
      vertex 2.09802 3.99518 1
      vertex 0 5 1
      vertex 2 4 1
    endloop
  endfacet
  facet normal 0 0 1
    outer loop
      vertex 2 4 1
      vertex 0 5 1
      vertex 1.90198 3.99518 1
    endloop
  endfacet
  facet normal 0 0 1
    outer loop
      vertex 1.90198 3.99518 1
      vertex 0 5 1
      vertex 1.80491 3.98078 1
    endloop
  endfacet
  facet normal 0 0 1
    outer loop
      vertex 1.00482 3.09802 1
      vertex 0 5 1
      vertex 1 3 1
    endloop
  endfacet
  facet normal 0 0 1
    outer loop
      vertex 1.01921 3.19509 1
      vertex 0 5 1
      vertex 1.00482 3.09802 1
    endloop
  endfacet
  facet normal 0 0 1
    outer loop
      vertex 1.04306 3.29028 1
      vertex 0 5 1
      vertex 1.01921 3.19509 1
    endloop
  endfacet
  facet normal 0 0 1
    outer loop
      vertex 1.07612 3.38268 1
      vertex 0 5 1
      vertex 1.04306 3.29028 1
    endloop
  endfacet
  facet normal 0 0 1
    outer loop
      vertex 1.11808 3.4714 1
      vertex 0 5 1
      vertex 1.07612 3.38268 1
    endloop
  endfacet
  facet normal 0 0 1
    outer loop
      vertex 1.16853 3.55557 1
      vertex 0 5 1
      vertex 1.11808 3.4714 1
    endloop
  endfacet
  facet normal 0 0 1
    outer loop
      vertex 1.22699 3.63439 1
      vertex 0 5 1
      vertex 1.16853 3.55557 1
    endloop
  endfacet
  facet normal 0 0 1
    outer loop
      vertex 1.29289 3.70711 1
      vertex 0 5 1
      vertex 1.22699 3.63439 1
    endloop
  endfacet
  facet normal 0 0 1
    outer loop
      vertex 1.36561 3.77301 1
      vertex 0 5 1
      vertex 1.29289 3.70711 1
    endloop
  endfacet
  facet normal 0 0 1
    outer loop
      vertex 1.44443 3.83147 1
      vertex 0 5 1
      vertex 1.36561 3.77301 1
    endloop
  endfacet
  facet normal 0 0 1
    outer loop
      vertex 1.5286 3.88192 1
      vertex 0 5 1
      vertex 1.44443 3.83147 1
    endloop
  endfacet
  facet normal 0 0 1
    outer loop
      vertex 1.61732 3.92388 1
      vertex 0 5 1
      vertex 1.5286 3.88192 1
    endloop
  endfacet
  facet normal 0 0 1
    outer loop
      vertex 1.70971 3.95694 1
      vertex 0 5 1
      vertex 1.61732 3.92388 1
    endloop
  endfacet
  facet normal 0 0 1
    outer loop
      vertex 1.80491 3.98078 1
      vertex 0 5 1
      vertex 1.70971 3.95694 1
    endloop
  endfacet
  facet normal 0 0 1
    outer loop
      vertex 5 5 1
      vertex 2.99518 2.90198 1
      vertex 5 0 1
    endloop
  endfacet
  facet normal -0 0 1
    outer loop
      vertex 2.98078 2.80491 1
      vertex 5 0 1
      vertex 2.99518 2.90198 1
    endloop
  endfacet
  facet normal -0 0 1
    outer loop
      vertex 2.95694 2.70971 1
      vertex 5 0 1
      vertex 2.98078 2.80491 1
    endloop
  endfacet
  facet normal -0 0 1
    outer loop
      vertex 2.92388 2.61732 1
      vertex 5 0 1
      vertex 2.95694 2.70971 1
    endloop
  endfacet
  facet normal -0 0 1
    outer loop
      vertex 2.88192 2.5286 1
      vertex 5 0 1
      vertex 2.92388 2.61732 1
    endloop
  endfacet
  facet normal -0 0 1
    outer loop
      vertex 2.83147 2.44443 1
      vertex 5 0 1
      vertex 2.88192 2.5286 1
    endloop
  endfacet
  facet normal -0 0 1
    outer loop
      vertex 2.77301 2.36561 1
      vertex 5 0 1
      vertex 2.83147 2.44443 1
    endloop
  endfacet
  facet normal -0 0 1
    outer loop
      vertex 2.70711 2.29289 1
      vertex 5 0 1
      vertex 2.77301 2.36561 1
    endloop
  endfacet
  facet normal -0 0 1
    outer loop
      vertex 2.63439 2.22699 1
      vertex 5 0 1
      vertex 2.70711 2.29289 1
    endloop
  endfacet
  facet normal -0 0 1
    outer loop
      vertex 2.55557 2.16853 1
      vertex 5 0 1
      vertex 2.63439 2.22699 1
    endloop
  endfacet
  facet normal -0 0 1
    outer loop
      vertex 2.4714 2.11808 1
      vertex 5 0 1
      vertex 2.55557 2.16853 1
    endloop
  endfacet
  facet normal -0 0 1
    outer loop
      vertex 2.38268 2.07612 1
      vertex 5 0 1
      vertex 2.4714 2.11808 1
    endloop
  endfacet
  facet normal -0 0 1
    outer loop
      vertex 2.29028 2.04306 1
      vertex 5 0 1
      vertex 2.38268 2.07612 1
    endloop
  endfacet
  facet normal -0 0 1
    outer loop
      vertex 2.19509 2.01921 1
      vertex 5 0 1
      vertex 2.29028 2.04306 1
    endloop
  endfacet
  facet normal -0 0 1
    outer loop
      vertex 2.09802 2.00482 1
      vertex 5 0 1
      vertex 2.19509 2.01921 1
    endloop
  endfacet
  facet normal 0 0 1
    outer loop
      vertex 0 0 1
      vertex 2.09802 2.00482 1
      vertex 2 2 1
    endloop
  endfacet
  facet normal 0 0 1
    outer loop
      vertex 0 0 1
      vertex 2 2 1
      vertex 1.90198 2.00482 1
    endloop
  endfacet
  facet normal 0 0 1
    outer loop
      vertex 0 0 1
      vertex 1.90198 2.00482 1
      vertex 1.80491 2.01921 1
    endloop
  endfacet
  facet normal 0 0 1
    outer loop
      vertex 0 0 1
      vertex 1.80491 2.01921 1
      vertex 1.70971 2.04306 1
    endloop
  endfacet
  facet normal 0 0 1
    outer loop
      vertex 0 0 1
      vertex 1.70971 2.04306 1
      vertex 1.61732 2.07612 1
    endloop
  endfacet
  facet normal 0 0 1
    outer loop
      vertex 0 0 1
      vertex 1.61732 2.07612 1
      vertex 1.5286 2.11808 1
    endloop
  endfacet
  facet normal 0 0 1
    outer loop
      vertex 0 0 1
      vertex 1.5286 2.11808 1
      vertex 1.44443 2.16853 1
    endloop
  endfacet
  facet normal 0 0 1
    outer loop
      vertex 0 5 1
      vertex 1.00482 2.90198 1
      vertex 1 3 1
    endloop
  endfacet
  facet normal 0 0 1
    outer loop
      vertex 0 0 1
      vertex 1.00482 2.90198 1
      vertex 0 5 1
    endloop
  endfacet
  facet normal 0 0 1
    outer loop
      vertex 1.00482 2.90198 1
      vertex 0 0 1
      vertex 1.01921 2.80491 1
    endloop
  endfacet
  facet normal 0 0 1
    outer loop
      vertex 1.01921 2.80491 1
      vertex 0 0 1
      vertex 1.04306 2.70971 1
    endloop
  endfacet
  facet normal 0 0 1
    outer loop
      vertex 2.09802 2.00482 1
      vertex 0 0 1
      vertex 5 0 1
    endloop
  endfacet
  facet normal 0 0 1
    outer loop
      vertex 1.36561 2.22699 1
      vertex 0 0 1
      vertex 1.44443 2.16853 1
    endloop
  endfacet
  facet normal 0 0 1
    outer loop
      vertex 1.29289 2.29289 1
      vertex 0 0 1
      vertex 1.36561 2.22699 1
    endloop
  endfacet
  facet normal 0 0 1
    outer loop
      vertex 1.22699 2.36561 1
      vertex 0 0 1
      vertex 1.29289 2.29289 1
    endloop
  endfacet
  facet normal 0 0 1
    outer loop
      vertex 1.16853 2.44443 1
      vertex 0 0 1
      vertex 1.22699 2.36561 1
    endloop
  endfacet
  facet normal 0 0 1
    outer loop
      vertex 1.11808 2.5286 1
      vertex 0 0 1
      vertex 1.16853 2.44443 1
    endloop
  endfacet
  facet normal 0 0 1
    outer loop
      vertex 1.07612 2.61732 1
      vertex 0 0 1
      vertex 1.11808 2.5286 1
    endloop
  endfacet
  facet normal 0 0 1
    outer loop
      vertex 1.04306 2.70971 1
      vertex 0 0 1
      vertex 1.07612 2.61732 1
    endloop
  endfacet
  facet normal 1 -0 0
    outer loop
      vertex 5 0 1
      vertex 5 5 0
      vertex 5 5 1
    endloop
  endfacet
  facet normal 1 0 0
    outer loop
      vertex 5 5 0
      vertex 5 0 1
      vertex 5 0 0
    endloop
  endfacet
  facet normal 0 0 -1
    outer loop
      vertex 2.99518 2.90198 0
      vertex 5 5 0
      vertex 5 0 0
    endloop
  endfacet
  facet normal 0 0 -1
    outer loop
      vertex 5 5 0
      vertex 2.99518 2.90198 0
      vertex 3 3 0
    endloop
  endfacet
  facet normal 0 0 -1
    outer loop
      vertex 5 0 0
      vertex 2.98078 2.80491 0
      vertex 2.99518 2.90198 0
    endloop
  endfacet
  facet normal 0 0 -1
    outer loop
      vertex 5 0 0
      vertex 2.95694 2.70971 0
      vertex 2.98078 2.80491 0
    endloop
  endfacet
  facet normal 0 0 -1
    outer loop
      vertex 5 0 0
      vertex 2.92388 2.61732 0
      vertex 2.95694 2.70971 0
    endloop
  endfacet
  facet normal 0 0 -1
    outer loop
      vertex 5 0 0
      vertex 2.88192 2.5286 0
      vertex 2.92388 2.61732 0
    endloop
  endfacet
  facet normal 0 0 -1
    outer loop
      vertex 5 0 0
      vertex 2.83147 2.44443 0
      vertex 2.88192 2.5286 0
    endloop
  endfacet
  facet normal 0 0 -1
    outer loop
      vertex 5 0 0
      vertex 2.77301 2.36561 0
      vertex 2.83147 2.44443 0
    endloop
  endfacet
  facet normal 0 0 -1
    outer loop
      vertex 5 0 0
      vertex 2.70711 2.29289 0
      vertex 2.77301 2.36561 0
    endloop
  endfacet
  facet normal 0 0 -1
    outer loop
      vertex 5 0 0
      vertex 2.63439 2.22699 0
      vertex 2.70711 2.29289 0
    endloop
  endfacet
  facet normal 0 0 -1
    outer loop
      vertex 5 0 0
      vertex 2.55557 2.16853 0
      vertex 2.63439 2.22699 0
    endloop
  endfacet
  facet normal 0 0 -1
    outer loop
      vertex 5 0 0
      vertex 2.4714 2.11808 0
      vertex 2.55557 2.16853 0
    endloop
  endfacet
  facet normal 0 0 -1
    outer loop
      vertex 5 0 0
      vertex 2.38268 2.07612 0
      vertex 2.4714 2.11808 0
    endloop
  endfacet
  facet normal 0 0 -1
    outer loop
      vertex 5 0 0
      vertex 2.29028 2.04306 0
      vertex 2.38268 2.07612 0
    endloop
  endfacet
  facet normal 0 0 -1
    outer loop
      vertex 5 0 0
      vertex 2.19509 2.01921 0
      vertex 2.29028 2.04306 0
    endloop
  endfacet
  facet normal 0 0 -1
    outer loop
      vertex 5 0 0
      vertex 2.09802 2.00482 0
      vertex 2.19509 2.01921 0
    endloop
  endfacet
  facet normal 0 0 -1
    outer loop
      vertex 0 0 0
      vertex 2.09802 2.00482 0
      vertex 5 0 0
    endloop
  endfacet
  facet normal 0 0 -1
    outer loop
      vertex 2.09802 2.00482 0
      vertex 0 0 0
      vertex 2 2 0
    endloop
  endfacet
  facet normal -0 0 -1
    outer loop
      vertex 2 2 0
      vertex 0 0 0
      vertex 1.90198 2.00482 0
    endloop
  endfacet
  facet normal -0 0 -1
    outer loop
      vertex 1.90198 2.00482 0
      vertex 0 0 0
      vertex 1.80491 2.01921 0
    endloop
  endfacet
  facet normal -0 0 -1
    outer loop
      vertex 1.80491 2.01921 0
      vertex 0 0 0
      vertex 1.70971 2.04306 0
    endloop
  endfacet
  facet normal -0 0 -1
    outer loop
      vertex 1.70971 2.04306 0
      vertex 0 0 0
      vertex 1.61732 2.07612 0
    endloop
  endfacet
  facet normal -0 0 -1
    outer loop
      vertex 1.61732 2.07612 0
      vertex 0 0 0
      vertex 1.5286 2.11808 0
    endloop
  endfacet
  facet normal 0 0 -1
    outer loop
      vertex 0 5 0
      vertex 1.00482 2.90198 0
      vertex 0 0 0
    endloop
  endfacet
  facet normal -0 0 -1
    outer loop
      vertex 1.01921 2.80491 0
      vertex 0 0 0
      vertex 1.00482 2.90198 0
    endloop
  endfacet
  facet normal -0 0 -1
    outer loop
      vertex 1.04306 2.70971 0
      vertex 0 0 0
      vertex 1.01921 2.80491 0
    endloop
  endfacet
  facet normal -0 0 -1
    outer loop
      vertex 1.07612 2.61732 0
      vertex 0 0 0
      vertex 1.04306 2.70971 0
    endloop
  endfacet
  facet normal -0 0 -1
    outer loop
      vertex 1.11808 2.5286 0
      vertex 0 0 0
      vertex 1.07612 2.61732 0
    endloop
  endfacet
  facet normal -0 0 -1
    outer loop
      vertex 1.16853 2.44443 0
      vertex 0 0 0
      vertex 1.11808 2.5286 0
    endloop
  endfacet
  facet normal -0 0 -1
    outer loop
      vertex 1.22699 2.36561 0
      vertex 0 0 0
      vertex 1.16853 2.44443 0
    endloop
  endfacet
  facet normal -0 0 -1
    outer loop
      vertex 1.29289 2.29289 0
      vertex 0 0 0
      vertex 1.22699 2.36561 0
    endloop
  endfacet
  facet normal -0 0 -1
    outer loop
      vertex 1.36561 2.22699 0
      vertex 0 0 0
      vertex 1.29289 2.29289 0
    endloop
  endfacet
  facet normal -0 0 -1
    outer loop
      vertex 1.44443 2.16853 0
      vertex 0 0 0
      vertex 1.36561 2.22699 0
    endloop
  endfacet
  facet normal -0 0 -1
    outer loop
      vertex 1.5286 2.11808 0
      vertex 0 0 0
      vertex 1.44443 2.16853 0
    endloop
  endfacet
  facet normal 0 0 -1
    outer loop
      vertex 2.99518 3.09802 0
      vertex 5 5 0
      vertex 3 3 0
    endloop
  endfacet
  facet normal 0 0 -1
    outer loop
      vertex 2.98078 3.19509 0
      vertex 5 5 0
      vertex 2.99518 3.09802 0
    endloop
  endfacet
  facet normal 0 0 -1
    outer loop
      vertex 2.95694 3.29028 0
      vertex 5 5 0
      vertex 2.98078 3.19509 0
    endloop
  endfacet
  facet normal 0 0 -1
    outer loop
      vertex 2.92388 3.38268 0
      vertex 5 5 0
      vertex 2.95694 3.29028 0
    endloop
  endfacet
  facet normal 0 0 -1
    outer loop
      vertex 2.88192 3.4714 0
      vertex 5 5 0
      vertex 2.92388 3.38268 0
    endloop
  endfacet
  facet normal 0 0 -1
    outer loop
      vertex 2.83147 3.55557 0
      vertex 5 5 0
      vertex 2.88192 3.4714 0
    endloop
  endfacet
  facet normal 0 0 -1
    outer loop
      vertex 2.77301 3.63439 0
      vertex 5 5 0
      vertex 2.83147 3.55557 0
    endloop
  endfacet
  facet normal 0 0 -1
    outer loop
      vertex 2.70711 3.70711 0
      vertex 5 5 0
      vertex 2.77301 3.63439 0
    endloop
  endfacet
  facet normal 0 0 -1
    outer loop
      vertex 2.63439 3.77301 0
      vertex 5 5 0
      vertex 2.70711 3.70711 0
    endloop
  endfacet
  facet normal 0 0 -1
    outer loop
      vertex 2.55557 3.83147 0
      vertex 5 5 0
      vertex 2.63439 3.77301 0
    endloop
  endfacet
  facet normal 0 0 -1
    outer loop
      vertex 2.4714 3.88192 0
      vertex 5 5 0
      vertex 2.55557 3.83147 0
    endloop
  endfacet
  facet normal 0 0 -1
    outer loop
      vertex 2.38268 3.92388 0
      vertex 5 5 0
      vertex 2.4714 3.88192 0
    endloop
  endfacet
  facet normal 0 0 -1
    outer loop
      vertex 2.29028 3.95694 0
      vertex 5 5 0
      vertex 2.38268 3.92388 0
    endloop
  endfacet
  facet normal 0 0 -1
    outer loop
      vertex 2.19509 3.98078 0
      vertex 5 5 0
      vertex 2.29028 3.95694 0
    endloop
  endfacet
  facet normal 0 0 -1
    outer loop
      vertex 2.09802 3.99518 0
      vertex 5 5 0
      vertex 2.19509 3.98078 0
    endloop
  endfacet
  facet normal 0 0 -1
    outer loop
      vertex 0 5 0
      vertex 2.09802 3.99518 0
      vertex 2 4 0
    endloop
  endfacet
  facet normal 0 0 -1
    outer loop
      vertex 0 5 0
      vertex 2 4 0
      vertex 1.90198 3.99518 0
    endloop
  endfacet
  facet normal 0 0 -1
    outer loop
      vertex 0 5 0
      vertex 1.90198 3.99518 0
      vertex 1.80491 3.98078 0
    endloop
  endfacet
  facet normal 0 0 -1
    outer loop
      vertex 0 5 0
      vertex 1.80491 3.98078 0
      vertex 1.70971 3.95694 0
    endloop
  endfacet
  facet normal 0 0 -1
    outer loop
      vertex 1.00482 2.90198 0
      vertex 0 5 0
      vertex 1 3 0
    endloop
  endfacet
  facet normal 0 0 -1
    outer loop
      vertex 1 3 0
      vertex 0 5 0
      vertex 1.00482 3.09802 0
    endloop
  endfacet
  facet normal 0 0 -1
    outer loop
      vertex 1.00482 3.09802 0
      vertex 0 5 0
      vertex 1.01921 3.19509 0
    endloop
  endfacet
  facet normal 0 0 -1
    outer loop
      vertex 2.09802 3.99518 0
      vertex 0 5 0
      vertex 5 5 0
    endloop
  endfacet
  facet normal 0 0 -1
    outer loop
      vertex 1.61732 3.92388 0
      vertex 0 5 0
      vertex 1.70971 3.95694 0
    endloop
  endfacet
  facet normal 0 0 -1
    outer loop
      vertex 1.5286 3.88192 0
      vertex 0 5 0
      vertex 1.61732 3.92388 0
    endloop
  endfacet
  facet normal 0 0 -1
    outer loop
      vertex 1.44443 3.83147 0
      vertex 0 5 0
      vertex 1.5286 3.88192 0
    endloop
  endfacet
  facet normal 0 0 -1
    outer loop
      vertex 1.36561 3.77301 0
      vertex 0 5 0
      vertex 1.44443 3.83147 0
    endloop
  endfacet
  facet normal 0 0 -1
    outer loop
      vertex 1.29289 3.70711 0
      vertex 0 5 0
      vertex 1.36561 3.77301 0
    endloop
  endfacet
  facet normal 0 0 -1
    outer loop
      vertex 1.22699 3.63439 0
      vertex 0 5 0
      vertex 1.29289 3.70711 0
    endloop
  endfacet
  facet normal 0 0 -1
    outer loop
      vertex 1.16853 3.55557 0
      vertex 0 5 0
      vertex 1.22699 3.63439 0
    endloop
  endfacet
  facet normal 0 0 -1
    outer loop
      vertex 1.11808 3.4714 0
      vertex 0 5 0
      vertex 1.16853 3.55557 0
    endloop
  endfacet
  facet normal 0 0 -1
    outer loop
      vertex 1.07612 3.38268 0
      vertex 0 5 0
      vertex 1.11808 3.4714 0
    endloop
  endfacet
  facet normal 0 0 -1
    outer loop
      vertex 1.04306 3.29028 0
      vertex 0 5 0
      vertex 1.07612 3.38268 0
    endloop
  endfacet
  facet normal 0 0 -1
    outer loop
      vertex 1.01921 3.19509 0
      vertex 0 5 0
      vertex 1.04306 3.29028 0
    endloop
  endfacet
  facet normal 0 -1 0
    outer loop
      vertex 0 0 0
      vertex 5 0 1
      vertex 0 0 1
    endloop
  endfacet
  facet normal 0 -1 -0
    outer loop
      vertex 5 0 1
      vertex 0 0 0
      vertex 5 0 0
    endloop
  endfacet
  facet normal 0 1 -0
    outer loop
      vertex 5 5 0
      vertex 0 5 1
      vertex 5 5 1
    endloop
  endfacet
  facet normal 0 1 0
    outer loop
      vertex 0 5 1
      vertex 5 5 0
      vertex 0 5 0
    endloop
  endfacet
  facet normal -0.998795 -0.0490758 0
    outer loop
      vertex 3 3 0
      vertex 2.99518 3.09802 1
      vertex 2.99518 3.09802 0
    endloop
  endfacet
  facet normal -0.998795 -0.0490758 0
    outer loop
      vertex 2.99518 3.09802 1
      vertex 3 3 0
      vertex 3 3 1
    endloop
  endfacet
  facet normal 0.0490753 -0.998795 0
    outer loop
      vertex 1.90198 3.99518 0
      vertex 2 4 1
      vertex 1.90198 3.99518 1
    endloop
  endfacet
  facet normal 0.0490753 -0.998795 0
    outer loop
      vertex 2 4 1
      vertex 1.90198 3.99518 0
      vertex 2 4 0
    endloop
  endfacet
  facet normal -0.671557 -0.740953 0
    outer loop
      vertex 2.63439 3.77301 0
      vertex 2.70711 3.70711 1
      vertex 2.63439 3.77301 1
    endloop
  endfacet
  facet normal -0.671557 -0.740953 -0
    outer loop
      vertex 2.70711 3.70711 1
      vertex 2.63439 3.77301 0
      vertex 2.70711 3.70711 0
    endloop
  endfacet
  facet normal 0.740953 -0.671557 0
    outer loop
      vertex 1.22699 3.63439 1
      vertex 1.29289 3.70711 0
      vertex 1.29289 3.70711 1
    endloop
  endfacet
  facet normal 0.740953 -0.671557 0
    outer loop
      vertex 1.29289 3.70711 0
      vertex 1.22699 3.63439 1
      vertex 1.22699 3.63439 0
    endloop
  endfacet
  facet normal 0.42755 -0.903992 0
    outer loop
      vertex 1.5286 3.88192 0
      vertex 1.61732 3.92388 1
      vertex 1.5286 3.88192 1
    endloop
  endfacet
  facet normal 0.42755 -0.903992 0
    outer loop
      vertex 1.61732 3.92388 1
      vertex 1.5286 3.88192 0
      vertex 1.61732 3.92388 0
    endloop
  endfacet
  facet normal -0.903992 -0.42755 0
    outer loop
      vertex 2.92388 3.38268 0
      vertex 2.88192 3.4714 1
      vertex 2.88192 3.4714 0
    endloop
  endfacet
  facet normal -0.903992 -0.42755 0
    outer loop
      vertex 2.88192 3.4714 1
      vertex 2.92388 3.38268 0
      vertex 2.92388 3.38268 1
    endloop
  endfacet
  facet normal -0.336892 -0.941543 0
    outer loop
      vertex 2.29028 3.95694 0
      vertex 2.38268 3.92388 1
      vertex 2.29028 3.95694 1
    endloop
  endfacet
  facet normal -0.336892 -0.941543 -0
    outer loop
      vertex 2.38268 3.92388 1
      vertex 2.29028 3.95694 0
      vertex 2.38268 3.92388 0
    endloop
  endfacet
  facet normal -0.514101 -0.857729 0
    outer loop
      vertex 2.4714 3.88192 0
      vertex 2.55557 3.83147 1
      vertex 2.4714 3.88192 1
    endloop
  endfacet
  facet normal -0.514101 -0.857729 -0
    outer loop
      vertex 2.55557 3.83147 1
      vertex 2.4714 3.88192 0
      vertex 2.55557 3.83147 0
    endloop
  endfacet
  facet normal 0.941543 -0.336892 0
    outer loop
      vertex 1.04306 3.29028 1
      vertex 1.07612 3.38268 0
      vertex 1.07612 3.38268 1
    endloop
  endfacet
  facet normal 0.941543 -0.336892 0
    outer loop
      vertex 1.07612 3.38268 0
      vertex 1.04306 3.29028 1
      vertex 1.04306 3.29028 0
    endloop
  endfacet
  facet normal 0.242979 -0.970031 0
    outer loop
      vertex 1.70971 3.95694 0
      vertex 1.80491 3.98078 1
      vertex 1.70971 3.95694 1
    endloop
  endfacet
  facet normal 0.242979 -0.970031 0
    outer loop
      vertex 1.80491 3.98078 1
      vertex 1.70971 3.95694 0
      vertex 1.80491 3.98078 0
    endloop
  endfacet
  facet normal -0.941543 0.336892 0
    outer loop
      vertex 2.92388 2.61732 0
      vertex 2.95694 2.70971 1
      vertex 2.95694 2.70971 0
    endloop
  endfacet
  facet normal -0.941543 0.336892 0
    outer loop
      vertex 2.95694 2.70971 1
      vertex 2.92388 2.61732 0
      vertex 2.92388 2.61732 1
    endloop
  endfacet
  facet normal -0.970031 0.242979 0
    outer loop
      vertex 2.95694 2.70971 0
      vertex 2.98078 2.80491 1
      vertex 2.98078 2.80491 0
    endloop
  endfacet
  facet normal -0.970031 0.242979 0
    outer loop
      vertex 2.98078 2.80491 1
      vertex 2.95694 2.70971 0
      vertex 2.95694 2.70971 1
    endloop
  endfacet
  facet normal 0.671557 0.740953 -0
    outer loop
      vertex 1.36561 2.22699 0
      vertex 1.29289 2.29289 1
      vertex 1.36561 2.22699 1
    endloop
  endfacet
  facet normal 0.671557 0.740953 0
    outer loop
      vertex 1.29289 2.29289 1
      vertex 1.36561 2.22699 0
      vertex 1.29289 2.29289 0
    endloop
  endfacet
  facet normal -0.970031 -0.242979 0
    outer loop
      vertex 2.98078 3.19509 0
      vertex 2.95694 3.29028 1
      vertex 2.95694 3.29028 0
    endloop
  endfacet
  facet normal -0.970031 -0.242979 0
    outer loop
      vertex 2.95694 3.29028 1
      vertex 2.98078 3.19509 0
      vertex 2.98078 3.19509 1
    endloop
  endfacet
  facet normal -0.989176 -0.146731 0
    outer loop
      vertex 2.99518 3.09802 0
      vertex 2.98078 3.19509 1
      vertex 2.98078 3.19509 0
    endloop
  endfacet
  facet normal -0.989176 -0.146731 0
    outer loop
      vertex 2.98078 3.19509 1
      vertex 2.99518 3.09802 0
      vertex 2.99518 3.09802 1
    endloop
  endfacet
  facet normal -0.941543 -0.336892 0
    outer loop
      vertex 2.95694 3.29028 0
      vertex 2.92388 3.38268 1
      vertex 2.92388 3.38268 0
    endloop
  endfacet
  facet normal -0.941543 -0.336892 0
    outer loop
      vertex 2.92388 3.38268 1
      vertex 2.95694 3.29028 0
      vertex 2.95694 3.29028 1
    endloop
  endfacet
  facet normal -0.803207 -0.5957 0
    outer loop
      vertex 2.83147 3.55557 0
      vertex 2.77301 3.63439 1
      vertex 2.77301 3.63439 0
    endloop
  endfacet
  facet normal -0.803207 -0.5957 0
    outer loop
      vertex 2.77301 3.63439 1
      vertex 2.83147 3.55557 0
      vertex 2.83147 3.55557 1
    endloop
  endfacet
  facet normal -0.740953 -0.671557 0
    outer loop
      vertex 2.77301 3.63439 0
      vertex 2.70711 3.70711 1
      vertex 2.70711 3.70711 0
    endloop
  endfacet
  facet normal -0.740953 -0.671557 0
    outer loop
      vertex 2.70711 3.70711 1
      vertex 2.77301 3.63439 0
      vertex 2.77301 3.63439 1
    endloop
  endfacet
  facet normal -0.857729 -0.514101 0
    outer loop
      vertex 2.88192 3.4714 0
      vertex 2.83147 3.55557 1
      vertex 2.83147 3.55557 0
    endloop
  endfacet
  facet normal -0.857729 -0.514101 0
    outer loop
      vertex 2.83147 3.55557 1
      vertex 2.88192 3.4714 0
      vertex 2.88192 3.4714 1
    endloop
  endfacet
  facet normal -0.146731 -0.989176 0
    outer loop
      vertex 2.09802 3.99518 0
      vertex 2.19509 3.98078 1
      vertex 2.09802 3.99518 1
    endloop
  endfacet
  facet normal -0.146731 -0.989176 -0
    outer loop
      vertex 2.19509 3.98078 1
      vertex 2.09802 3.99518 0
      vertex 2.19509 3.98078 0
    endloop
  endfacet
  facet normal -0.242979 -0.970031 0
    outer loop
      vertex 2.19509 3.98078 0
      vertex 2.29028 3.95694 1
      vertex 2.19509 3.98078 1
    endloop
  endfacet
  facet normal -0.242979 -0.970031 -0
    outer loop
      vertex 2.29028 3.95694 1
      vertex 2.19509 3.98078 0
      vertex 2.29028 3.95694 0
    endloop
  endfacet
  facet normal -0.0490758 -0.998795 0
    outer loop
      vertex 2 4 0
      vertex 2.09802 3.99518 1
      vertex 2 4 1
    endloop
  endfacet
  facet normal -0.0490758 -0.998795 -0
    outer loop
      vertex 2.09802 3.99518 1
      vertex 2 4 0
      vertex 2.09802 3.99518 0
    endloop
  endfacet
  facet normal -0.42755 -0.903992 0
    outer loop
      vertex 2.38268 3.92388 0
      vertex 2.4714 3.88192 1
      vertex 2.38268 3.92388 1
    endloop
  endfacet
  facet normal -0.42755 -0.903992 -0
    outer loop
      vertex 2.4714 3.88192 1
      vertex 2.38268 3.92388 0
      vertex 2.4714 3.88192 0
    endloop
  endfacet
  facet normal -0.5957 -0.803207 0
    outer loop
      vertex 2.55557 3.83147 0
      vertex 2.63439 3.77301 1
      vertex 2.55557 3.83147 1
    endloop
  endfacet
  facet normal -0.5957 -0.803207 -0
    outer loop
      vertex 2.63439 3.77301 1
      vertex 2.55557 3.83147 0
      vertex 2.63439 3.77301 0
    endloop
  endfacet
  facet normal 0.989176 -0.146731 0
    outer loop
      vertex 1.00482 3.09802 1
      vertex 1.01921 3.19509 0
      vertex 1.01921 3.19509 1
    endloop
  endfacet
  facet normal 0.989176 -0.146731 0
    outer loop
      vertex 1.01921 3.19509 0
      vertex 1.00482 3.09802 1
      vertex 1.00482 3.09802 0
    endloop
  endfacet
  facet normal 0.857729 -0.514101 0
    outer loop
      vertex 1.11808 3.4714 1
      vertex 1.16853 3.55557 0
      vertex 1.16853 3.55557 1
    endloop
  endfacet
  facet normal 0.857729 -0.514101 0
    outer loop
      vertex 1.16853 3.55557 0
      vertex 1.11808 3.4714 1
      vertex 1.11808 3.4714 0
    endloop
  endfacet
  facet normal 0.803207 -0.5957 0
    outer loop
      vertex 1.16853 3.55557 1
      vertex 1.22699 3.63439 0
      vertex 1.22699 3.63439 1
    endloop
  endfacet
  facet normal 0.803207 -0.5957 0
    outer loop
      vertex 1.22699 3.63439 0
      vertex 1.16853 3.55557 1
      vertex 1.16853 3.55557 0
    endloop
  endfacet
  facet normal 0.903992 -0.42755 0
    outer loop
      vertex 1.07612 3.38268 1
      vertex 1.11808 3.4714 0
      vertex 1.11808 3.4714 1
    endloop
  endfacet
  facet normal 0.903992 -0.42755 0
    outer loop
      vertex 1.11808 3.4714 0
      vertex 1.07612 3.38268 1
      vertex 1.07612 3.38268 0
    endloop
  endfacet
  facet normal 0.970031 -0.242979 0
    outer loop
      vertex 1.01921 3.19509 1
      vertex 1.04306 3.29028 0
      vertex 1.04306 3.29028 1
    endloop
  endfacet
  facet normal 0.970031 -0.242979 0
    outer loop
      vertex 1.04306 3.29028 0
      vertex 1.01921 3.19509 1
      vertex 1.01921 3.19509 0
    endloop
  endfacet
  facet normal 0.998796 -0.0490661 0
    outer loop
      vertex 1 3 1
      vertex 1.00482 3.09802 0
      vertex 1.00482 3.09802 1
    endloop
  endfacet
  facet normal 0.998796 -0.0490661 0
    outer loop
      vertex 1.00482 3.09802 0
      vertex 1 3 1
      vertex 1 3 0
    endloop
  endfacet
  facet normal 0.5957 -0.803207 0
    outer loop
      vertex 1.36561 3.77301 0
      vertex 1.44443 3.83147 1
      vertex 1.36561 3.77301 1
    endloop
  endfacet
  facet normal 0.5957 -0.803207 0
    outer loop
      vertex 1.44443 3.83147 1
      vertex 1.36561 3.77301 0
      vertex 1.44443 3.83147 0
    endloop
  endfacet
  facet normal 0.514101 -0.857729 0
    outer loop
      vertex 1.44443 3.83147 0
      vertex 1.5286 3.88192 1
      vertex 1.44443 3.83147 1
    endloop
  endfacet
  facet normal 0.514101 -0.857729 0
    outer loop
      vertex 1.5286 3.88192 1
      vertex 1.44443 3.83147 0
      vertex 1.5286 3.88192 0
    endloop
  endfacet
  facet normal 0.671557 -0.740953 0
    outer loop
      vertex 1.29289 3.70711 0
      vertex 1.36561 3.77301 1
      vertex 1.29289 3.70711 1
    endloop
  endfacet
  facet normal 0.671557 -0.740953 0
    outer loop
      vertex 1.36561 3.77301 1
      vertex 1.29289 3.70711 0
      vertex 1.36561 3.77301 0
    endloop
  endfacet
  facet normal 0.336892 -0.941543 0
    outer loop
      vertex 1.61732 3.92388 0
      vertex 1.70971 3.95694 1
      vertex 1.61732 3.92388 1
    endloop
  endfacet
  facet normal 0.336892 -0.941543 0
    outer loop
      vertex 1.70971 3.95694 1
      vertex 1.61732 3.92388 0
      vertex 1.70971 3.95694 0
    endloop
  endfacet
  facet normal 0.146731 -0.989176 0
    outer loop
      vertex 1.80491 3.98078 0
      vertex 1.90198 3.99518 1
      vertex 1.80491 3.98078 1
    endloop
  endfacet
  facet normal 0.146731 -0.989176 0
    outer loop
      vertex 1.90198 3.99518 1
      vertex 1.80491 3.98078 0
      vertex 1.90198 3.99518 0
    endloop
  endfacet
  facet normal -0.146731 0.989176 0
    outer loop
      vertex 2.19509 2.01921 0
      vertex 2.09802 2.00482 1
      vertex 2.19509 2.01921 1
    endloop
  endfacet
  facet normal -0.146731 0.989176 0
    outer loop
      vertex 2.09802 2.00482 1
      vertex 2.19509 2.01921 0
      vertex 2.09802 2.00482 0
    endloop
  endfacet
  facet normal -0.336892 0.941543 0
    outer loop
      vertex 2.38268 2.07612 0
      vertex 2.29028 2.04306 1
      vertex 2.38268 2.07612 1
    endloop
  endfacet
  facet normal -0.336892 0.941543 0
    outer loop
      vertex 2.29028 2.04306 1
      vertex 2.38268 2.07612 0
      vertex 2.29028 2.04306 0
    endloop
  endfacet
  facet normal -0.671557 0.740953 0
    outer loop
      vertex 2.70711 2.29289 0
      vertex 2.63439 2.22699 1
      vertex 2.70711 2.29289 1
    endloop
  endfacet
  facet normal -0.671557 0.740953 0
    outer loop
      vertex 2.63439 2.22699 1
      vertex 2.70711 2.29289 0
      vertex 2.63439 2.22699 0
    endloop
  endfacet
  facet normal -0.514101 0.857729 0
    outer loop
      vertex 2.55557 2.16853 0
      vertex 2.4714 2.11808 1
      vertex 2.55557 2.16853 1
    endloop
  endfacet
  facet normal -0.514101 0.857729 0
    outer loop
      vertex 2.4714 2.11808 1
      vertex 2.55557 2.16853 0
      vertex 2.4714 2.11808 0
    endloop
  endfacet
  facet normal -0.803207 0.5957 0
    outer loop
      vertex 2.77301 2.36561 0
      vertex 2.83147 2.44443 1
      vertex 2.83147 2.44443 0
    endloop
  endfacet
  facet normal -0.803207 0.5957 0
    outer loop
      vertex 2.83147 2.44443 1
      vertex 2.77301 2.36561 0
      vertex 2.77301 2.36561 1
    endloop
  endfacet
  facet normal -0.903992 0.42755 0
    outer loop
      vertex 2.88192 2.5286 0
      vertex 2.92388 2.61732 1
      vertex 2.92388 2.61732 0
    endloop
  endfacet
  facet normal -0.903992 0.42755 0
    outer loop
      vertex 2.92388 2.61732 1
      vertex 2.88192 2.5286 0
      vertex 2.88192 2.5286 1
    endloop
  endfacet
  facet normal 0.5957 0.803207 -0
    outer loop
      vertex 1.44443 2.16853 0
      vertex 1.36561 2.22699 1
      vertex 1.44443 2.16853 1
    endloop
  endfacet
  facet normal 0.5957 0.803207 0
    outer loop
      vertex 1.36561 2.22699 1
      vertex 1.44443 2.16853 0
      vertex 1.36561 2.22699 0
    endloop
  endfacet
  facet normal 0.42755 0.903992 -0
    outer loop
      vertex 1.61732 2.07612 0
      vertex 1.5286 2.11808 1
      vertex 1.61732 2.07612 1
    endloop
  endfacet
  facet normal 0.42755 0.903992 0
    outer loop
      vertex 1.5286 2.11808 1
      vertex 1.61732 2.07612 0
      vertex 1.5286 2.11808 0
    endloop
  endfacet
  facet normal 0.242979 0.970031 -0
    outer loop
      vertex 1.80491 2.01921 0
      vertex 1.70971 2.04306 1
      vertex 1.80491 2.01921 1
    endloop
  endfacet
  facet normal 0.242979 0.970031 0
    outer loop
      vertex 1.70971 2.04306 1
      vertex 1.80491 2.01921 0
      vertex 1.70971 2.04306 0
    endloop
  endfacet
  facet normal 0.0490661 0.998796 -0
    outer loop
      vertex 2 2 0
      vertex 1.90198 2.00482 1
      vertex 2 2 1
    endloop
  endfacet
  facet normal 0.0490661 0.998796 0
    outer loop
      vertex 1.90198 2.00482 1
      vertex 2 2 0
      vertex 1.90198 2.00482 0
    endloop
  endfacet
  facet normal 0.803207 0.5957 0
    outer loop
      vertex 1.22699 2.36561 1
      vertex 1.16853 2.44443 0
      vertex 1.16853 2.44443 1
    endloop
  endfacet
  facet normal 0.803207 0.5957 0
    outer loop
      vertex 1.16853 2.44443 0
      vertex 1.22699 2.36561 1
      vertex 1.22699 2.36561 0
    endloop
  endfacet
  facet normal 0.857729 0.514101 0
    outer loop
      vertex 1.16853 2.44443 1
      vertex 1.11808 2.5286 0
      vertex 1.11808 2.5286 1
    endloop
  endfacet
  facet normal 0.857729 0.514101 0
    outer loop
      vertex 1.11808 2.5286 0
      vertex 1.16853 2.44443 1
      vertex 1.16853 2.44443 0
    endloop
  endfacet
  facet normal 0.740953 0.671557 0
    outer loop
      vertex 1.29289 2.29289 1
      vertex 1.22699 2.36561 0
      vertex 1.22699 2.36561 1
    endloop
  endfacet
  facet normal 0.740953 0.671557 0
    outer loop
      vertex 1.22699 2.36561 0
      vertex 1.29289 2.29289 1
      vertex 1.29289 2.29289 0
    endloop
  endfacet
  facet normal 0.941543 0.336892 0
    outer loop
      vertex 1.07612 2.61732 1
      vertex 1.04306 2.70971 0
      vertex 1.04306 2.70971 1
    endloop
  endfacet
  facet normal 0.941543 0.336892 0
    outer loop
      vertex 1.04306 2.70971 0
      vertex 1.07612 2.61732 1
      vertex 1.07612 2.61732 0
    endloop
  endfacet
  facet normal 0.903992 0.42755 0
    outer loop
      vertex 1.11808 2.5286 1
      vertex 1.07612 2.61732 0
      vertex 1.07612 2.61732 1
    endloop
  endfacet
  facet normal 0.903992 0.42755 0
    outer loop
      vertex 1.07612 2.61732 0
      vertex 1.11808 2.5286 1
      vertex 1.11808 2.5286 0
    endloop
  endfacet
  facet normal 0.989176 0.146731 0
    outer loop
      vertex 1.01921 2.80491 1
      vertex 1.00482 2.90198 0
      vertex 1.00482 2.90198 1
    endloop
  endfacet
  facet normal 0.989176 0.146731 0
    outer loop
      vertex 1.00482 2.90198 0
      vertex 1.01921 2.80491 1
      vertex 1.01921 2.80491 0
    endloop
  endfacet
  facet normal 0.998796 0.0490657 0
    outer loop
      vertex 1.00482 2.90198 1
      vertex 1 3 0
      vertex 1 3 1
    endloop
  endfacet
  facet normal 0.998796 0.0490657 0
    outer loop
      vertex 1 3 0
      vertex 1.00482 2.90198 1
      vertex 1.00482 2.90198 0
    endloop
  endfacet
  facet normal -0.242979 0.970031 0
    outer loop
      vertex 2.29028 2.04306 0
      vertex 2.19509 2.01921 1
      vertex 2.29028 2.04306 1
    endloop
  endfacet
  facet normal -0.242979 0.970031 0
    outer loop
      vertex 2.19509 2.01921 1
      vertex 2.29028 2.04306 0
      vertex 2.19509 2.01921 0
    endloop
  endfacet
  facet normal -0.42755 0.903992 0
    outer loop
      vertex 2.4714 2.11808 0
      vertex 2.38268 2.07612 1
      vertex 2.4714 2.11808 1
    endloop
  endfacet
  facet normal -0.42755 0.903992 0
    outer loop
      vertex 2.38268 2.07612 1
      vertex 2.4714 2.11808 0
      vertex 2.38268 2.07612 0
    endloop
  endfacet
  facet normal -0.740953 0.671557 0
    outer loop
      vertex 2.70711 2.29289 0
      vertex 2.77301 2.36561 1
      vertex 2.77301 2.36561 0
    endloop
  endfacet
  facet normal -0.740953 0.671557 0
    outer loop
      vertex 2.77301 2.36561 1
      vertex 2.70711 2.29289 0
      vertex 2.70711 2.29289 1
    endloop
  endfacet
  facet normal -0.5957 0.803207 0
    outer loop
      vertex 2.63439 2.22699 0
      vertex 2.55557 2.16853 1
      vertex 2.63439 2.22699 1
    endloop
  endfacet
  facet normal -0.5957 0.803207 0
    outer loop
      vertex 2.55557 2.16853 1
      vertex 2.63439 2.22699 0
      vertex 2.55557 2.16853 0
    endloop
  endfacet
  facet normal -0.857729 0.514101 0
    outer loop
      vertex 2.83147 2.44443 0
      vertex 2.88192 2.5286 1
      vertex 2.88192 2.5286 0
    endloop
  endfacet
  facet normal -0.857729 0.514101 0
    outer loop
      vertex 2.88192 2.5286 1
      vertex 2.83147 2.44443 0
      vertex 2.83147 2.44443 1
    endloop
  endfacet
  facet normal -0.989176 0.146731 0
    outer loop
      vertex 2.98078 2.80491 0
      vertex 2.99518 2.90198 1
      vertex 2.99518 2.90198 0
    endloop
  endfacet
  facet normal -0.989176 0.146731 0
    outer loop
      vertex 2.99518 2.90198 1
      vertex 2.98078 2.80491 0
      vertex 2.98078 2.80491 1
    endloop
  endfacet
  facet normal -0.998795 0.0490753 0
    outer loop
      vertex 2.99518 2.90198 0
      vertex 3 3 1
      vertex 3 3 0
    endloop
  endfacet
  facet normal -0.998795 0.0490753 0
    outer loop
      vertex 3 3 1
      vertex 2.99518 2.90198 0
      vertex 2.99518 2.90198 1
    endloop
  endfacet
  facet normal 0.514101 0.857729 -0
    outer loop
      vertex 1.5286 2.11808 0
      vertex 1.44443 2.16853 1
      vertex 1.5286 2.11808 1
    endloop
  endfacet
  facet normal 0.514101 0.857729 0
    outer loop
      vertex 1.44443 2.16853 1
      vertex 1.5286 2.11808 0
      vertex 1.44443 2.16853 0
    endloop
  endfacet
  facet normal 0.336892 0.941543 -0
    outer loop
      vertex 1.70971 2.04306 0
      vertex 1.61732 2.07612 1
      vertex 1.70971 2.04306 1
    endloop
  endfacet
  facet normal 0.336892 0.941543 0
    outer loop
      vertex 1.61732 2.07612 1
      vertex 1.70971 2.04306 0
      vertex 1.61732 2.07612 0
    endloop
  endfacet
  facet normal 0.146731 0.989176 -0
    outer loop
      vertex 1.90198 2.00482 0
      vertex 1.80491 2.01921 1
      vertex 1.90198 2.00482 1
    endloop
  endfacet
  facet normal 0.146731 0.989176 0
    outer loop
      vertex 1.80491 2.01921 1
      vertex 1.90198 2.00482 0
      vertex 1.80491 2.01921 0
    endloop
  endfacet
  facet normal -0.0490657 0.998796 0
    outer loop
      vertex 2.09802 2.00482 0
      vertex 2 2 1
      vertex 2.09802 2.00482 1
    endloop
  endfacet
  facet normal -0.0490657 0.998796 0
    outer loop
      vertex 2 2 1
      vertex 2.09802 2.00482 0
      vertex 2 2 0
    endloop
  endfacet
  facet normal 0.970031 0.242979 0
    outer loop
      vertex 1.04306 2.70971 1
      vertex 1.01921 2.80491 0
      vertex 1.01921 2.80491 1
    endloop
  endfacet
  facet normal 0.970031 0.242979 0
    outer loop
      vertex 1.01921 2.80491 0
      vertex 1.04306 2.70971 1
      vertex 1.04306 2.70971 0
    endloop
  endfacet
endsolid OpenSCAD_Model
